<?xml version="1.0" encoding="UTF-8" standalone="no"?>
<svg
   xmlns:dc="http://purl.org/dc/elements/1.1/"
   xmlns:cc="http://creativecommons.org/ns#"
   xmlns:rdf="http://www.w3.org/1999/02/22-rdf-syntax-ns#"
   xmlns:svg="http://www.w3.org/2000/svg"
   xmlns="http://www.w3.org/2000/svg"
   xmlns:sodipodi="http://sodipodi.sourceforge.net/DTD/sodipodi-0.dtd"
   xmlns:inkscape="http://www.inkscape.org/namespaces/inkscape"
   width="210mm"
   height="297mm"
   viewBox="0 0 210 297"
   version="1.1"
   id="svg8"
   sodipodi:docname="icon.svg"
   inkscape:version="1.0.1 (3bc2e813f5, 2020-09-07)">
  <defs
     id="defs2">
    <rect
       x="66.52381"
       y="80.886905"
       width="74.083333"
       height="34.77381"
       id="rect32" />
    <rect
       x="6.8035714"
       y="66.52381"
       width="199.57143"
       height="161.77381"
       id="rect24" />
    <rect
       x="7.5595238"
       y="52.916667"
       width="195.79167"
       height="194.27976"
       id="rect18" />
    <rect
       x="49.136905"
       y="65.011905"
       width="127.75595"
       height="93.738095"
       id="rect12" />
  </defs>
  <sodipodi:namedview
     id="base"
     pagecolor="#ffffff"
     bordercolor="#666666"
     borderopacity="1.0"
     inkscape:pageopacity="0.0"
     inkscape:pageshadow="2"
     inkscape:zoom="0.35"
     inkscape:cx="400"
     inkscape:cy="638.81374"
     inkscape:document-units="mm"
     inkscape:current-layer="layer1"
     inkscape:document-rotation="0"
     showgrid="false"
     inkscape:window-width="1920"
     inkscape:window-height="1001"
     inkscape:window-x="-9"
     inkscape:window-y="-9"
     inkscape:window-maximized="1" />
  <metadata
     id="metadata5">
    <rdf:RDF>
      <cc:Work
         rdf:about="">
        <dc:format>image/svg+xml</dc:format>
        <dc:type
           rdf:resource="http://purl.org/dc/dcmitype/StillImage" />
      </cc:Work>
    </rdf:RDF>
  </metadata>
  <g
     inkscape:label="Layer 1"
     inkscape:groupmode="layer"
     id="layer1">
    <text
       xml:space="preserve"
       id="text10"
       style="font-size:3.88056px;line-height:1;font-family:sans-serif;white-space:pre;shape-inside:url(#rect12);" />
    <text
       xml:space="preserve"
       id="text16"
       style="line-height:1;font-family:sans-serif;font-size:3.88055556px;white-space:pre;shape-inside:url(#rect18);" />
    <text
       xml:space="preserve"
       id="text30"
       style="line-height:1;font-family:sans-serif;font-size:3.88055556px;white-space:pre;shape-inside:url(#rect32);" />
    <g
       id="g49"
       transform="matrix(3.7252969,0,0,2.8887663,-299.65677,-237.57631)">
      <g
         aria-label="ุณ"
         transform="translate(70.303571,45.357143)"
         id="text22"
         style="font-size:50.8px;line-height:1;font-family:sans-serif;white-space:pre;shape-inside:url(#rect24)">
        <path
           d="m 38.453516,104.02812 q -0.595312,4.44004 -2.678906,7.09414 -3.299024,4.2168 -8.086328,5.75469 -1.984375,0.64492 -4.960938,0.64492 -3.175,-0.0248 -5.87871,-0.71933 -6.821289,-1.76113 -6.821289,-9.89707 0,-6.10195 2.604492,-10.566799 h 4.564062 q -2.678906,5.109769 -2.654101,10.566799 0.0248,4.44004 3.671093,5.38262 2.356446,0.59531 4.365625,0.59531 2.43086,0 4.787305,-0.91778 3.001367,-1.19062 5.333008,-5.10976 1.5875,-2.67891 1.562695,-6.20117 -0.02481,-3.100589 -0.42168,-4.613675 l -1.5875,-5.804297 h 4.564063 l 0.892968,3.869532 q 0.396875,1.835546 1.091407,3.323828 1.463476,3.199802 4.316015,3.199802 2.033985,0 3.125391,-3.02617 0.917773,-2.554882 0.917773,-7.366992 h 4.564063 q 0,5.084961 0.471289,6.325196 1.5875,4.191996 4.316015,4.191996 3.522266,0 3.522266,-6.945317 v -7.292578 h 4.564062 v 8.483203 q 0,4.936133 -2.282031,7.739062 -1.860351,2.28203 -4.39043,2.87734 -0.917773,0.22325 -1.711523,0.22325 -1.810742,0 -3.001367,-0.62012 -3.423047,-1.73633 -3.844727,-4.78731 -1.215429,3.94395 -3.571875,4.68809 -1.240234,0.37207 -2.976562,0.44649 -3.274219,0.14882 -4.365625,-1.5379 z"
           style="font-size:50.8px;line-height:1;font-family:sans-serif;white-space:pre;shape-inside:url(#rect24)"
           id="path71" />
      </g>
      <g
         aria-label="3"
         transform="rotate(-90)"
         id="text44"
         style="font-size:50.8px;line-height:1;font-family:sans-serif;stroke-width:0.264583"
         inkscape:transform-center-x="-26.458331"
         inkscape:transform-center-y="10.583342">
        <path
           d="m -112.05578,116.23004 q 3.59668,0.76895 5.60586,3.19981 2.03399,2.43086 2.03399,6.00273 0,5.48184 -3.77032,8.4832 -3.77031,3.00137 -10.71562,3.00137 -2.33164,0 -4.81211,-0.47129 -2.45566,-0.44648 -5.08496,-1.36426 v -4.83691 q 2.08359,1.21543 4.56406,1.83555 2.48047,0.62011 5.18418,0.62011 4.71289,0 7.16856,-1.86035 2.48046,-1.86035 2.48046,-5.40742 0,-3.27422 -2.30683,-5.10976 -2.28203,-1.86036 -6.37481,-1.86036 h -4.31601 v -4.11757 h 4.51445 q 3.6959,0 5.65547,-1.46348 1.95957,-1.48828 1.95957,-4.26641 0,-2.85254 -2.03398,-4.36562 -2.00918,-1.53789 -5.7795,-1.53789 -2.05879,0 -4.41523,0.44648 -2.35645,0.44649 -5.18418,1.38906 v -4.46484 q 2.85254,-0.79375 5.33301,-1.190624 2.50527,-0.396875 4.71289,-0.396875 5.70508,0 9.0289,2.604489 3.32383,2.57969 3.32383,6.99492 0,3.07579 -1.76113,5.20899 -1.76113,2.1084 -5.01055,2.92695 z"
           style="stroke-width:0.264583"
           id="path74" />
      </g>
    </g>
  </g>
</svg>
